<?xml version="1.0" encoding="UTF-8" standalone="no"?>
<svg
   xmlns:dc="http://purl.org/dc/elements/1.1/"
   xmlns:cc="http://creativecommons.org/ns#"
   xmlns:rdf="http://www.w3.org/1999/02/22-rdf-syntax-ns#"
   xmlns:svg="http://www.w3.org/2000/svg"
   xmlns="http://www.w3.org/2000/svg"
   viewBox="0 0 1122.52 793.70667"
   height="793.70667"
   width="1122.52"
   xml:space="preserve"
   id="svg2"
   version="1.1"><metadata
     id="metadata8"><rdf:RDF><cc:Work
         rdf:about=""><dc:format>image/svg+xml</dc:format><dc:type
           rdf:resource="http://purl.org/dc/dcmitype/StillImage" /></cc:Work></rdf:RDF></metadata><defs
     id="defs6" /><g
     transform="matrix(1.3333333,0,0,-1.3333333,0,793.70667)"
     id="g10"><g
       transform="translate(370.1143,440.2751)"
       id="g12"><path
         id="path14"
         style="fill:#000000;fill-opacity:1;fill-rule:nonzero;stroke:none"
         d="M 0,0 V 43.592 H 50.96 Z" /></g><g
       transform="translate(421.0742,309.4973)"
       id="g16"><path
         id="path18"
         style="fill:#000000;fill-opacity:1;fill-rule:nonzero;stroke:none"
         d="M 0,0 H -50.96 V 108.948 L 0,152.574 Z" /></g><g
       transform="translate(353.5918,111.4128)"
       id="g20"><path
         id="path22"
         style="fill:#000000;fill-opacity:1;fill-rule:nonzero;stroke:none"
         d="m 0,0 -34.002,175.166 h -50.96 L -118.965,0 h 50.96 v 68.694 l 17.046,26.762 0,-95.456 z" /></g><g
       transform="translate(552.2002,220.8923)"
       id="g24"><path
         id="path26"
         style="fill:#000000;fill-opacity:1;fill-rule:nonzero;stroke:none"
         d="m 0,0 h 54.774 v 65.688 l -84.112,-0.001 -51.375,-87.583 51.375,-87.583 h 84.112 v 65.687 H -0.01 l -12.627,21.896 z" /></g><g
       transform="translate(420.9448,198.9958)"
       id="g28"><path
         id="path30"
         style="fill:#000000;fill-opacity:1;fill-rule:nonzero;stroke:none"
         d="M 0,0 12.807,21.896 H 46.753 L 84.508,87.583 H -50.96 V -87.583 H 0 v 29.456 l 17.279,-29.456 h 67.21 L 33.979,0 Z" /></g><g
       transform="translate(285.5869,483.8674)"
       id="g32"><path
         id="path34"
         style="fill:#000000;fill-opacity:1;fill-rule:nonzero;stroke:none"
         d="M 0,0 H -50.96 V -109.466 L 0,-65.018 Z" /></g><g
       transform="translate(302.6323,483.8674)"
       id="g36"><path
         id="path38"
         style="fill:#000000;fill-opacity:1;fill-rule:nonzero;stroke:none"
         d="m 0,0 v -72.584 l -68.005,-58.194 v -43.592 h 50.96 v 72.841 l 68.004,57.937 0,43.592 z" /></g><g
       transform="translate(302.6323,309.4973)"
       id="g40"><path
         id="path42"
         style="fill:#000000;fill-opacity:1;fill-rule:nonzero;stroke:none"
         d="M 0,0 H 50.959 V 108.948 L 0,64.904 Z" /></g><g
       transform="translate(573.6885,396.6823)"
       id="g44"><path
         id="path46"
         style="fill:#000000;fill-opacity:1;fill-rule:nonzero;stroke:none"
         d="M 0,0 H -17.084 L 0,22.167 Z m -51.054,-43.792 -16.874,21.864 33.856,-0.101 z M -102.144,0 V 22.167 L -85.059,0 Z M 16.437,87.185 -31.667,67.213 -51.054,87.185 -70.439,67.213 -118.543,87.185 -135.682,0 -51.054,-87.185 33.574,0 Z" /></g></g></svg>