<?xml version="1.0" encoding="utf-8"?>
<!-- Generator: Adobe Illustrator 25.3.1, SVG Export Plug-In . SVG Version: 6.00 Build 0)  -->
<svg version="1.1"
	 id="svg2" xmlns:cc="http://creativecommons.org/ns#" xmlns:dc="http://purl.org/dc/elements/1.1/" xmlns:rdf="http://www.w3.org/1999/02/22-rdf-syntax-ns#" xmlns:svg="http://www.w3.org/2000/svg"
	 xmlns="http://www.w3.org/2000/svg" xmlns:xlink="http://www.w3.org/1999/xlink" x="0px" y="0px" viewBox="0 0 1122.5 793.7"
	 style="enable-background:new 0 0 1122.5 793.7;" xml:space="preserve">
<style type="text/css">
	.st0{fill:#FFFFFF;}
</style>
<g id="g12" transform="translate(370.1143,440.2751)">
	<path id="path14" class="st0" d="M123.4-233.6v-58.1h67.9L123.4-233.6z"/>
</g>
<g id="g16" transform="translate(421.0742,309.4973)">
	<path id="path18" class="st0" d="M140.4,71.5H72.4V-73.7l67.9-58.2V71.5z"/>
</g>
<g id="g20" transform="translate(353.5918,111.4128)">
	<path id="path22" class="st0" d="M117.9,533.7L72.5,300.2H4.6l-45.3,233.6h67.9v-91.6l22.7-35.7v127.3H117.9z"/>
</g>
<g id="g24" transform="translate(552.2002,220.8923)">
	<path id="path26" class="st0" d="M184.1,278.3h73v-87.6l-112.1,0L76.4,307.5l68.5,116.8h112.1v-87.6h-73l-16.8-29.2L184.1,278.3z"
		/>
</g>
<g id="g28" transform="translate(420.9448,198.9958)">
	<path id="path30" class="st0" d="M140.3,329.4l17.1-29.2h45.3l50.3-87.6H72.4v233.6h67.9v-39.3l23,39.3H253l-67.3-116.8H140.3z"/>
</g>
<g id="g32" transform="translate(285.5869,483.8674)">
	<path id="path34" class="st0" d="M95.2-335.3H27.2v146l67.9-59.3V-335.3z"/>
</g>
<g id="g36" transform="translate(302.6323,483.8674)">
	<path id="path38" class="st0" d="M100.9-335.3v96.8l-90.7,77.6v58.1h67.9v-97.1l90.7-77.2v-58.1H100.9z"/>
</g>
<g id="g40" transform="translate(302.6323,309.4973)">
	<path id="path42" class="st0" d="M100.9,71.5h67.9V-73.7L100.9-15V71.5z"/>
</g>
<g id="g44" transform="translate(573.6885,396.6823)">
	<path id="path46" class="st0" d="M191.2-131.9h-22.8l22.8-29.6V-131.9z M123.2-73.5l-22.5-29.2l45.1,0.1L123.2-73.5z M55-131.9
		v-29.6l22.8,29.6H55z M213.1-248.1L149-221.5l-25.8-26.6l-25.8,26.6l-64.1-26.6L10.3-131.9L123.2-15.6L236-131.9L213.1-248.1z"/>
</g>
</svg>
